<svg width="204" height="42" viewBox="0 0 204 42" fill="none" xmlns="http://www.w3.org/2000/svg">
<path fill-rule="evenodd" clip-rule="evenodd" d="M20.9436 0C12.4733 -0.000606691 4.83671 5.1014 1.59498 12.9268C-1.64675 20.7523 0.144815 29.76 6.13424 35.7494C12.1237 41.7388 21.1313 43.5304 28.9568 40.2886C36.7822 37.0469 41.8842 29.4103 41.8836 20.94C41.8836 15.3864 39.6774 10.0602 35.7504 6.13318C31.8234 2.20617 26.4972 0 20.9436 0ZM30.5436 31.9185H25.5501V22.8H16.3401V31.9125H11.3451V9.216H16.3401V18.1995H25.5516V9.216H30.5451V31.9185H30.5436Z" fill="#202020"/>
<path fill-rule="evenodd" clip-rule="evenodd" d="M53.2446 32.3085C51.9681 32.3203 50.7015 32.0834 49.5156 31.611C48.4113 31.1738 47.4034 30.5246 46.5486 29.7C45.7145 28.8875 45.0479 27.9192 44.5866 26.85C44.1068 25.7393 43.8636 24.5408 43.8726 23.331V23.2665C43.8637 22.0566 44.1068 20.8582 44.5866 19.7475C45.0522 18.6708 45.7244 17.696 46.5651 16.878C47.4258 16.0432 48.4386 15.3812 49.5486 14.928C50.7429 14.443 52.0217 14.2003 53.3106 14.214C54.5876 14.2022 55.8547 14.4391 57.0411 14.9115C58.1434 15.3493 59.1497 15.9979 60.0036 16.821C60.8374 17.6338 61.5039 18.602 61.9656 19.671C62.4452 20.7818 62.6883 21.9802 62.6796 23.19V23.2545C62.6885 24.4643 62.4453 25.6628 61.9656 26.7735C61.5004 27.8503 60.8282 28.8253 59.9871 29.643C59.1266 30.478 58.1138 31.14 57.0036 31.593C55.8104 32.0781 54.5326 32.3213 53.2446 32.3085ZM53.3091 28.059C53.96 28.071 54.606 27.9436 55.2036 27.6855C55.7401 27.4478 56.2206 27.0997 56.6136 26.664C57.007 26.2248 57.3102 25.7126 57.5061 25.1565C57.714 24.5679 57.818 23.9477 57.8136 23.3235V23.259C57.8174 22.6339 57.7076 22.0133 57.4896 21.4275C57.0628 20.284 56.1996 19.3566 55.0896 18.849C54.5091 18.5853 53.8777 18.4522 53.2401 18.459C52.5882 18.4468 51.9412 18.5741 51.3426 18.8325C50.8062 19.0705 50.3259 19.4185 49.9326 19.854C49.5392 20.2932 49.236 20.8054 49.0401 21.3615C48.8323 21.9496 48.7282 22.5693 48.7326 23.193V23.2575C48.7282 23.8831 48.838 24.5043 49.0566 25.0905C49.4836 26.2285 50.3392 27.154 51.4401 27.669C52.0267 27.9369 52.6658 28.0702 53.3106 28.059H53.3091Z" fill="#202020"/>
<path fill-rule="evenodd" clip-rule="evenodd" d="M72.8331 32.3085C71.5915 32.3195 70.3608 32.0765 69.2166 31.5945C67.0561 30.7005 65.3444 28.9774 64.4646 26.811C64.0081 25.7053 63.7766 24.5197 63.7836 23.3235V23.259C63.7775 22.058 64.009 20.8677 64.4646 19.7565C64.9002 18.6825 65.5389 17.7026 66.3456 16.8705C67.1628 16.0354 68.139 15.3724 69.2166 14.9205C70.3844 14.4352 71.6391 14.1937 72.9036 14.211C74.5466 14.211 75.9086 14.4705 76.9896 14.9895C78.0703 15.51 79.0386 16.2372 79.8396 17.13L76.8231 20.373C76.3118 19.83 75.7278 19.3606 75.0876 18.978C74.4876 18.632 73.7471 18.459 72.8661 18.459C72.2774 18.4507 71.6947 18.5785 71.1636 18.8325C70.6565 19.0803 70.2045 19.4277 69.8346 19.854C69.4502 20.2968 69.1529 20.8083 68.9586 21.3615C68.7508 21.9496 68.6467 22.5693 68.6511 23.193V23.2575C68.6457 23.8974 68.7497 24.5336 68.9586 25.1385C69.1515 25.7009 69.4549 26.2191 69.8511 26.6625C70.2405 27.0957 70.7155 27.4435 71.2461 27.684C71.8142 27.9388 72.431 28.0667 73.0536 28.059C73.8035 28.0763 74.5456 27.9035 75.2106 27.5565C75.8753 27.1851 76.4906 26.7315 77.0421 26.2065L79.9281 29.1255C79.1002 30.043 78.1248 30.8156 77.0421 31.4115C75.9661 32.0085 74.5631 32.3075 72.8331 32.3085Z" fill="#202020"/>
<path fill-rule="evenodd" clip-rule="evenodd" d="M81.5256 8.25H86.4546V20.8665L92.2281 14.535H98.1306L91.5141 21.378L98.3571 31.9185H92.7141L88.1736 24.816L86.4546 26.6325V31.9185H81.5256V8.25Z" fill="#202020"/>
<path fill-rule="evenodd" clip-rule="evenodd" d="M107.341 32.3085C106.105 32.3196 104.878 32.0993 103.724 31.659C102.645 31.2489 101.662 30.6197 100.838 29.811C100.021 29.0022 99.3759 28.0369 98.9406 26.973C98.4717 25.8141 98.2382 24.5735 98.2536 23.3235V23.259C98.2473 22.0625 98.4619 20.8751 98.8866 19.7565C99.2857 18.6904 99.8855 17.7107 100.654 16.8705C102.246 15.1422 104.499 14.1748 106.849 14.211C108.297 14.211 109.551 14.4705 110.611 14.9895C111.636 15.4814 112.539 16.1957 113.254 17.0805C113.968 17.9745 114.499 19.0006 114.817 20.1C115.154 21.2532 115.323 22.449 115.319 23.6505C115.319 23.8455 115.314 24.051 115.303 24.267C115.292 24.483 115.275 24.71 115.253 24.948H103.157C103.394 26.072 103.886 26.922 104.633 27.498C105.38 28.074 106.304 28.358 107.404 28.35C108.16 28.3628 108.91 28.2193 109.609 27.9285C110.349 27.5868 111.028 27.1268 111.62 26.5665L114.442 29.064C113.633 30.0691 112.613 30.883 111.454 31.4475C110.29 32.0205 108.919 32.3075 107.341 32.3085ZM110.519 21.8655C110.368 20.7655 109.979 19.8735 109.352 19.1895C108.725 18.5055 107.893 18.165 106.855 18.168C105.817 18.168 104.979 18.503 104.341 19.173C103.703 19.843 103.287 20.74 103.093 21.864H110.519V21.8655Z" fill="#202020"/>
<path fill-rule="evenodd" clip-rule="evenodd" d="M121.513 37.2C120.701 37.2134 119.892 37.1041 119.113 36.876C118.422 36.6602 117.758 36.3663 117.134 36L118.784 32.4315C119.116 32.63 119.468 32.7929 119.834 32.9175C120.171 33.0397 120.526 33.1056 120.884 33.1125C121.241 33.1315 121.596 33.0471 121.906 32.8695C122.154 32.7075 122.386 32.41 122.603 31.977L115.804 14.535H121.025L124.982 26.373L128.777 14.535H133.901L127.222 32.34C126.946 33.1203 126.598 33.8735 126.184 34.59C125.859 35.1526 125.448 35.6612 124.967 36.0975C124.529 36.4853 124.013 36.7743 123.454 36.945C122.823 37.1256 122.169 37.2115 121.513 37.2Z" fill="#202020"/>
<path fill-rule="evenodd" clip-rule="evenodd" d="M141.296 32.25C138.587 32.2289 135.962 31.3046 133.837 29.6235L135.944 26.3805C136.814 27.0281 137.769 27.552 138.782 27.9375C139.626 28.265 140.52 28.4407 141.425 28.4565C142.139 28.4565 142.664 28.3375 142.999 28.0995C143.317 27.8934 143.507 27.5381 143.501 27.159V27.0945C143.502 26.8368 143.396 26.5903 143.209 26.4135C142.978 26.1965 142.708 26.0259 142.414 25.911C142.037 25.7561 141.652 25.6209 141.262 25.506C140.829 25.376 140.375 25.2355 139.9 25.0845C139.279 24.9053 138.668 24.6935 138.07 24.45C137.468 24.21 136.905 23.8819 136.4 23.4765C135.899 23.0721 135.485 22.5699 135.184 22.0005C134.852 21.3369 134.691 20.6014 134.714 19.86V19.7955C134.672 18.2188 135.36 16.7108 136.579 15.7095C137.171 15.2232 137.854 14.8592 138.589 14.6385C139.393 14.3953 140.229 14.275 141.07 14.2815C142.209 14.2874 143.342 14.468 144.427 14.817C145.533 15.1606 146.587 15.6574 147.556 16.293L145.675 19.698C144.869 19.2283 144.022 18.8322 143.146 18.5145C142.451 18.2472 141.716 18.0992 140.972 18.0765C140.366 18.0765 139.912 18.19 139.61 18.417C139.327 18.6109 139.158 18.933 139.16 19.2765V19.341C139.162 19.5842 139.269 19.8149 139.453 19.974C139.686 20.1838 139.948 20.3586 140.231 20.493C140.595 20.6714 140.968 20.8282 141.35 20.9625C141.772 21.1145 142.222 21.2645 142.7 21.4125C143.3 21.6075 143.916 21.84 144.548 22.11C145.147 22.3668 145.711 22.6996 146.225 23.1C146.724 23.4915 147.143 23.9759 147.458 24.5265C147.798 25.1525 147.966 25.8575 147.944 26.5695V26.634C147.967 27.499 147.795 28.3581 147.442 29.148C147.121 29.8332 146.637 30.4291 146.032 30.8835C145.393 31.3534 144.673 31.6999 143.908 31.905C143.057 32.1388 142.178 32.2549 141.296 32.25Z" fill="#202020"/>
<path fill-rule="evenodd" clip-rule="evenodd" d="M155.728 32.2095C155.034 32.2171 154.341 32.1354 153.668 31.9665C153.075 31.8168 152.529 31.5214 152.08 31.107C151.612 30.6609 151.257 30.111 151.042 29.502C150.793 28.843 150.668 28.005 150.668 26.988V18.75H148.592V14.535H150.668V10.092H155.597V14.535H159.683V18.75H155.597V26.2035C155.597 27.3325 156.127 27.8965 157.186 27.8955C158.04 27.8987 158.879 27.675 159.619 27.2475V31.2C159.078 31.5123 158.5 31.7571 157.9 31.929C157.193 32.1248 156.461 32.2193 155.728 32.2095Z" fill="#202020"/>
<path fill-rule="evenodd" clip-rule="evenodd" d="M161.792 8.25H166.981V12.621H161.792V8.25ZM161.923 14.5425H166.852V31.9185H161.923V14.535V14.5425Z" fill="#202020"/>
<path fill-rule="evenodd" clip-rule="evenodd" d="M178.073 32.3085C176.832 32.3194 175.601 32.0764 174.457 31.5945C172.296 30.7004 170.584 28.9773 169.705 26.811C169.248 25.7053 169.016 24.5197 169.024 23.3235V23.259C169.018 22.058 169.249 20.8677 169.705 19.7565C170.14 18.6825 170.779 17.7026 171.586 16.8705C172.403 16.0354 173.379 15.3723 174.457 14.9205C175.622 14.4344 176.875 14.1914 178.138 14.2065C179.781 14.2065 181.143 14.466 182.224 14.985C183.304 15.5054 184.273 16.2326 185.074 17.1255L182.057 20.3685C181.546 19.8255 180.962 19.356 180.322 18.9735C179.722 18.6275 178.981 18.4545 178.1 18.4545C177.511 18.4461 176.929 18.574 176.398 18.828C175.89 19.0757 175.438 19.4231 175.069 19.8495C174.684 20.2922 174.387 20.8037 174.193 21.357C173.985 21.945 173.881 22.5648 173.885 23.1885V23.253C173.88 23.8929 173.984 24.5291 174.193 25.134C174.385 25.6964 174.689 26.2146 175.085 26.658C175.475 27.0912 175.95 27.439 176.48 27.6795C177.051 27.935 177.671 28.0625 178.297 28.053C179.047 28.0703 179.789 27.8974 180.454 27.5505C181.118 27.179 181.734 26.7255 182.285 26.2005L185.171 29.1195C184.343 30.037 183.368 30.8096 182.285 31.4055C181.206 32.0065 179.802 32.3075 178.073 32.3085Z" fill="#202020"/>
<path fill-rule="evenodd" clip-rule="evenodd" d="M186.764 8.25H191.693V20.8665L197.467 14.5425H203.369L196.753 21.3855L203.596 31.926H197.953L193.412 24.8235L191.693 26.64V31.926H186.764V8.25Z" fill="#202020"/>
</svg>
