<svg id="add70af8-729f-4b38-9710-6269b519e490" data-name="Layer 1" xmlns="http://www.w3.org/2000/svg" viewBox="0 0 133.85 65"><path d="M106.37,44.15c0-.44-.11-.55-.54-.55-5,0-10,0-15,0-.63,0-.63,0-.63-.63q0-14.88,0-29.76c0-.51-.15-.61-.63-.61H70.37c-1,0-1.9,0-2.85.08a13.59,13.59,0,0,0-3.69.74c-4.65,1.65-7.81,4.62-8.48,9.79l-.08-.09a19.69,19.69,0,0,0-10.9-9.39,20.52,20.52,0,0,0-6.28-1.22,25,25,0,0,0-3.67.18A19.41,19.41,0,0,0,18.78,24a19.4,19.4,0,0,0-1.89,8,22.28,22.28,0,0,0,.24,4.4A18.69,18.69,0,0,0,22.05,46,20.19,20.19,0,0,0,35.8,52.43,19.47,19.47,0,0,0,42,51.94c7.2-1.82,12.19-6.1,14.62-13.21a20.41,20.41,0,0,0,1-7.11c0-.5-.09-1-.14-1.49h.13c.06.06.12.11.17.17a12.1,12.1,0,0,0,2.9,2.44A55,55,0,0,0,67.42,36a23,23,0,0,1,3.29,1.56,3.59,3.59,0,0,1,1.07,4.79c-.69,1.22-1.82,1.23-3.23,1.24q-6.31,0-12.63,0c-.41,0-.52.12-.52.52,0,2.37,0,5.34,0,7.71,0,.46.13.57.58.57q6.14,0,12.29,0A21.48,21.48,0,0,0,72.5,52a12.09,12.09,0,0,0,6.84-3.64l.53-.6a.28.28,0,0,1,.1.31c-.09,1.24,0,2.49,0,3.74,0,.46.13.61.62.61q12.63,0,25.26,0c.42,0,.56-.08.56-.54q0-3.87,0-7.74M47.73,33.47c-.47,4.6-2.65,8-7,9.84a8.24,8.24,0,0,1-3,.59,10.53,10.53,0,0,1-10.48-7.77,11.29,11.29,0,0,1-.57-3.9c.29-4.4,2-8,6.11-10.07a9.45,9.45,0,0,1,5-.94,10.41,10.41,0,0,1,9.36,7.51,11.39,11.39,0,0,1,.58,4.74m32.18.76a14,14,0,0,0-3.53-2.89,49.33,49.33,0,0,0-5.68-2.72,24.44,24.44,0,0,1-4.23-2.31,2.82,2.82,0,0,1-1.35-2.77,3.07,3.07,0,0,1,2-2.5,3.19,3.19,0,0,1,1.29-.25c3.67,0,7.33,0,11,0,.41,0,.48.15.48.51,0,2.69,0,5.38,0,8.06,0,1.53-.08,3,0,4.57a1.8,1.8,0,0,1-.06.3" fill="#00b2db"/><path d="M117,48a4.44,4.44,0,1,1-4.43-4.43A4.43,4.43,0,0,1,117,48" fill="#b3b1b3"/><path d="M106.37,44.15c0-.44-.11-.55-.54-.55-5,0-10,0-15,0-.63,0-.63,0-.63-.63q0-14.88,0-29.76c0-.51-.15-.61-.63-.61H70.37c-1,0-1.9,0-2.85.08a13.59,13.59,0,0,0-3.69.74c-4.65,1.65-7.81,4.62-8.48,9.79l-.08-.09a19.69,19.69,0,0,0-10.9-9.39,20.52,20.52,0,0,0-6.28-1.22,25,25,0,0,0-3.67.18A19.41,19.41,0,0,0,18.78,24a19.4,19.4,0,0,0-1.89,8,22.28,22.28,0,0,0,.24,4.4A18.69,18.69,0,0,0,22.05,46,20.19,20.19,0,0,0,35.8,52.43,19.47,19.47,0,0,0,42,51.94c7.2-1.82,12.19-6.1,14.62-13.21a20.41,20.41,0,0,0,1-7.11c0-.5-.09-1-.14-1.49h.13c.06.06.12.11.17.17a12.1,12.1,0,0,0,2.9,2.44A55,55,0,0,0,67.42,36a23,23,0,0,1,3.29,1.56,3.59,3.59,0,0,1,1.07,4.79c-.69,1.22-1.82,1.23-3.23,1.24q-6.31,0-12.63,0c-.41,0-.52.12-.52.52,0,2.37,0,5.34,0,7.71,0,.46.13.57.58.57q6.14,0,12.29,0A21.48,21.48,0,0,0,72.5,52a12.09,12.09,0,0,0,6.84-3.64l.53-.6a.28.28,0,0,1,.1.31c-.09,1.24,0,2.49,0,3.74,0,.46.13.61.62.61q12.63,0,25.26,0c.42,0,.56-.08.56-.54q0-3.87,0-7.74M47.73,33.47c-.47,4.6-2.65,8-7,9.84a8.24,8.24,0,0,1-3,.59,10.53,10.53,0,0,1-10.48-7.77,11.29,11.29,0,0,1-.57-3.9c.29-4.4,2-8,6.11-10.07a9.45,9.45,0,0,1,5-.94,10.41,10.41,0,0,1,9.36,7.51,11.39,11.39,0,0,1,.58,4.74m32.18.76a14,14,0,0,0-3.53-2.89,49.33,49.33,0,0,0-5.68-2.72,24.44,24.44,0,0,1-4.23-2.31,2.82,2.82,0,0,1-1.35-2.77,3.07,3.07,0,0,1,2-2.5,3.19,3.19,0,0,1,1.29-.25c3.67,0,7.33,0,11,0,.41,0,.48.15.48.51,0,2.69,0,5.38,0,8.06,0,1.53-.08,3,0,4.57a1.8,1.8,0,0,1-.06.3" fill="#00b2db"/><path d="M117,48a4.44,4.44,0,1,1-4.43-4.43A4.43,4.43,0,0,1,117,48" fill="#b3b3b3"/></svg>